<svg width="23" height="23" viewBox="0 0 23 23" fill="none" xmlns="http://www.w3.org/2000/svg">
<path d="M5.25601 17.1058C4.45622 17.1058 3.68918 16.7881 3.12364 16.2225C2.5581 15.657 2.24039 14.8899 2.24039 14.0901V6.20312C2.24039 5.40333 2.5581 4.6363 3.12364 4.07076C3.68918 3.50522 4.45622 3.1875 5.25601 3.1875H17.7825C18.1785 3.1875 18.5706 3.2655 18.9365 3.41705C19.3024 3.5686 19.6348 3.79073 19.9148 4.07076C20.1949 4.35078 20.417 4.68322 20.5685 5.0491C20.7201 5.41497 20.7981 5.80711 20.7981 6.20312V14.0901C20.7981 14.4862 20.7201 14.8783 20.5685 15.2442C20.417 15.61 20.1949 15.9425 19.9148 16.2225C19.6348 16.5025 19.3024 16.7247 18.9365 16.8762C18.5706 17.0278 18.1785 17.1058 17.7825 17.1058H12.4583L7.8077 20.5853C7.63537 20.7143 7.43056 20.7928 7.21618 20.812C7.00179 20.8312 6.7863 20.7904 6.5938 20.6941C6.4013 20.5978 6.23939 20.4498 6.1262 20.2667C6.013 20.0837 5.95298 19.8727 5.95285 19.6575V17.1058H5.25694H5.25601ZM11.9962 15.7139H17.7825C18.2131 15.7139 18.6261 15.5429 18.9307 15.2383C19.2352 14.9338 19.4063 14.5208 19.4063 14.0901V6.20312C19.4063 5.77247 19.2352 5.35945 18.9307 5.05493C18.6261 4.75041 18.2131 4.57933 17.7825 4.57933H5.25601C4.82535 4.57933 4.41233 4.75041 4.10781 5.05493C3.80329 5.35945 3.63221 5.77247 3.63221 6.20312V14.0901C3.63221 14.9865 4.35968 15.7139 5.25601 15.7139H7.34282V19.1935L11.9962 15.7139Z" fill="#536471"/>
</svg>
