<svg width="26" height="24" viewBox="0 0 26 24" fill="none" xmlns="http://www.w3.org/2000/svg">
<path d="M13.4579 8.59106V13.1365M4.79758 15.6363C3.76413 17.4263 3.24756 18.3216 3.32475 19.056C3.39207 19.6966 3.72828 20.2786 4.24937 20.6572C4.84659 21.0911 5.8794 21.0911 7.94488 21.0911H18.9709C21.0364 21.0911 22.0691 21.0911 22.6663 20.6572C23.1874 20.2786 23.5238 19.6966 23.5911 19.056C23.6683 18.3216 23.1518 17.4263 22.1184 15.6363L16.6073 6.09084C15.5739 4.30086 15.0569 3.40602 14.3823 3.10567C13.7939 2.84368 13.1216 2.84368 12.5331 3.10567C11.8588 3.4059 11.3422 4.30074 10.3096 6.08923L4.79758 15.6363ZM13.5156 16.5456V16.6592L13.4013 16.6595V16.5456H13.5156Z" stroke="white" stroke-width="2.27273" stroke-linecap="round" stroke-linejoin="round"/>
</svg>
