<svg width="18" height="18" viewBox="0 0 18 18" fill="none" xmlns="http://www.w3.org/2000/svg">
<path d="M8.68257 0.581055C13.4231 0.581055 17.266 4.42395 17.266 9.1645C17.266 13.9042 13.4231 17.7471 8.68257 17.7471C3.94202 17.7471 0.0991211 13.9042 0.0991211 9.1645C0.0991211 4.42395 3.94202 0.581055 8.68257 0.581055ZM8.68257 1.86831C7.71782 1.85785 6.76057 2.03883 5.86623 2.40079C4.97189 2.76274 4.15822 3.29848 3.47231 3.97699C2.7864 4.6555 2.24187 5.46331 1.87024 6.35368C1.49861 7.24404 1.30725 8.19927 1.30725 9.16407C1.30725 10.1289 1.49861 11.0841 1.87024 11.9745C2.24187 12.8648 2.7864 13.6726 3.47231 14.3512C4.15822 15.0297 4.97189 15.5654 5.86623 15.9274C6.76057 16.2893 7.71782 16.4703 8.68257 16.4598C10.598 16.4305 12.4251 15.6489 13.7693 14.284C15.1134 12.919 15.8669 11.0802 15.8669 9.1645C15.8669 7.24882 15.1134 5.40998 13.7693 4.04503C12.4251 2.68009 10.598 1.89855 8.68257 1.86917V1.86831ZM5.64635 11.5528C6.00743 12.0128 6.46844 12.3846 6.99448 12.64C7.52052 12.8955 8.09779 13.0278 8.68257 13.0271C9.26662 13.0278 9.84318 12.8957 10.3687 12.6409C10.8942 12.3861 11.355 12.0152 11.7162 11.5562C11.822 11.4223 11.9768 11.3359 12.1463 11.316C12.3159 11.2961 12.4864 11.3444 12.6203 11.4502C12.7542 11.5561 12.8407 11.7108 12.8605 11.8803C12.8804 12.0499 12.8321 12.2204 12.7263 12.3543C12.2446 12.9658 11.6304 13.46 10.9299 13.7995C10.2294 14.1391 9.461 14.3151 8.68257 14.3144C7.90314 14.315 7.13376 14.1384 6.43262 13.798C5.73148 13.4575 5.11692 12.9621 4.63542 12.3492C4.53433 12.2148 4.48987 12.0461 4.51157 11.8793C4.53327 11.7125 4.6194 11.5608 4.75153 11.4567C4.88366 11.3527 5.05128 11.3044 5.21852 11.3224C5.38576 11.3403 5.53933 11.423 5.64635 11.5528ZM6.10805 6.37458C6.25142 6.37052 6.39414 6.39526 6.52778 6.44732C6.66142 6.49939 6.78327 6.57772 6.88611 6.67769C6.98895 6.77766 7.0707 6.89724 7.12652 7.02936C7.18234 7.16148 7.2111 7.30344 7.2111 7.44687C7.2111 7.59029 7.18234 7.73226 7.12652 7.86438C7.0707 7.99649 6.98895 8.11607 6.88611 8.21604C6.78327 8.31602 6.66142 8.39435 6.52778 8.44641C6.39414 8.49848 6.25142 8.52321 6.10805 8.51916C5.82891 8.51126 5.56386 8.39482 5.36921 8.19459C5.17456 7.99436 5.06567 7.72612 5.06567 7.44687C5.06567 7.16762 5.17456 6.89938 5.36921 6.69915C5.56386 6.49892 5.82891 6.38248 6.10805 6.37458ZM11.2571 6.37458C11.4005 6.37052 11.5432 6.39526 11.6768 6.44732C11.8105 6.49939 11.9323 6.57772 12.0351 6.67769C12.138 6.77766 12.2197 6.89724 12.2756 7.02936C12.3314 7.16148 12.3601 7.30344 12.3601 7.44687C12.3601 7.59029 12.3314 7.73226 12.2756 7.86438C12.2197 7.99649 12.138 8.11607 12.0351 8.21604C11.9323 8.31602 11.8105 8.39435 11.6768 8.44641C11.5432 8.49848 11.4005 8.52321 11.2571 8.51916C10.9779 8.51126 10.7129 8.39482 10.5182 8.19459C10.3236 7.99436 10.2147 7.72612 10.2147 7.44687C10.2147 7.16762 10.3236 6.89938 10.5182 6.69915C10.7129 6.49892 10.9779 6.38248 11.2571 6.37458Z" fill="#536471"/>
</svg>
