<svg width="25" height="25" viewBox="0 0 25 25" fill="none" xmlns="http://www.w3.org/2000/svg">
<g id="File / File_Document">
<path id="Vector" d="M10.7143 16.6965H16.2857M10.7143 14.3632H16.2857M14.4289 5.8083C14.3402 5.80762 14.2404 5.80762 14.1265 5.80762H9.97161C8.93151 5.80762 8.41108 5.80762 8.01381 5.97716C7.66437 6.1263 7.38047 6.3641 7.20242 6.65679C7 6.98954 7 7.42546 7 8.29666V17.3189C7 18.1901 7 18.6254 7.20242 18.9582C7.38047 19.2509 7.66437 19.4891 8.01381 19.6382C8.41069 19.8076 8.9305 19.8076 9.96859 19.8076L17.0314 19.8076C18.0695 19.8076 18.5886 19.8076 18.9854 19.6382C19.3349 19.4891 19.6197 19.2509 19.7978 18.9582C20 18.6258 20 18.191 20 17.3215V10.7276C20 10.6322 19.9999 10.5486 19.9991 10.4743M14.4289 5.8083C14.694 5.81032 14.861 5.81856 15.0212 5.85076C15.2107 5.88887 15.3923 5.95171 15.5585 6.037C15.7458 6.13317 15.9067 6.26792 16.2277 6.53678L19.1299 8.96771C19.4511 9.23675 19.6108 9.3709 19.7257 9.52788C19.8275 9.66706 19.9028 9.81882 19.9483 9.97754C19.9868 10.1117 19.9967 10.2523 19.9991 10.4743M14.4289 5.8083L14.4286 7.98556C14.4286 8.85675 14.4286 9.29218 14.631 9.62493C14.809 9.91763 15.0929 10.1558 15.4424 10.3049C15.8393 10.4743 16.3591 10.4743 17.3971 10.4743H19.9991" stroke="#536471" stroke-width="1.5" stroke-linecap="round" stroke-linejoin="round"/>
</g>
</svg>
