<svg width="16" height="16" viewBox="0 0 16 16" fill="none" xmlns="http://www.w3.org/2000/svg">
<path d="M12.9634 0.439453C13.7031 0.439453 14.4125 0.7333 14.9355 1.25635C15.4586 1.7794 15.7524 2.48881 15.7524 3.22852V13.0975C15.7524 13.8372 15.4586 14.5466 14.9355 15.0697C14.4125 15.5927 13.7031 15.8866 12.9634 15.8866H3.09436C2.35466 15.8866 1.64525 15.5927 1.1222 15.0697C0.599145 14.5466 0.305298 13.8372 0.305298 13.0975V3.22852C0.305298 2.48881 0.599145 1.7794 1.1222 1.25635C1.64525 0.7333 2.35466 0.439453 3.09436 0.439453H12.9634ZM13.4611 14.5143L8.4794 9.63478C8.37072 9.52826 8.22782 9.4637 8.07605 9.45254C7.92429 9.44139 7.77348 9.48437 7.6504 9.57385L7.57831 9.63392L2.5949 14.5143C2.75109 14.5693 2.91929 14.5993 3.09436 14.5993H12.9634C13.1376 14.5993 13.3058 14.5693 13.4611 14.5143L8.4794 9.63478L13.4611 14.5135V14.5143ZM12.9634 1.72671H3.09436C2.69606 1.72671 2.31407 1.88494 2.03243 2.16658C1.75078 2.44822 1.59256 2.83021 1.59256 3.22852V13.0975C1.59256 13.276 1.62345 13.4476 1.68095 13.6073L6.67809 8.71482C7.02065 8.37947 7.4757 8.18353 7.95473 8.16513C8.43376 8.14673 8.9025 8.30718 9.26977 8.61527L9.37962 8.71482L14.3759 13.6081C14.4334 13.4485 14.4652 13.2769 14.4652 13.0975V3.22852C14.4652 2.83021 14.3069 2.44822 14.0253 2.16658C13.7436 1.88494 13.3617 1.72671 12.9634 1.72671ZM10.8196 3.44306C11.3322 3.44306 11.8238 3.64667 12.1862 4.00911C12.5486 4.37154 12.7522 4.86311 12.7522 5.37566C12.7522 5.88822 12.5486 6.37979 12.1862 6.74222C11.8238 7.10466 11.3322 7.30827 10.8196 7.30827C10.3071 7.30827 9.81551 7.10466 9.45308 6.74222C9.09064 6.37979 8.88703 5.88822 8.88703 5.37566C8.88703 4.86311 9.09064 4.37154 9.45308 4.00911C9.81551 3.64667 10.3071 3.44306 10.8196 3.44306ZM10.8196 4.73032C10.6485 4.73032 10.4843 4.79831 10.3633 4.91934C10.2423 5.04036 10.1743 5.20451 10.1743 5.37566C10.1743 5.54682 10.2423 5.71097 10.3633 5.83199C10.4843 5.95302 10.6485 6.02101 10.8196 6.02101C10.9908 6.02101 11.1549 5.95302 11.276 5.83199C11.397 5.71097 11.465 5.54682 11.465 5.37566C11.465 5.20451 11.397 5.04036 11.276 4.91934C11.1549 4.79831 10.9908 4.73032 10.8196 4.73032Z" fill="#536471"/>
</svg>
