<svg width="18" height="16" viewBox="0 0 18 16" fill="none" xmlns="http://www.w3.org/2000/svg">
<path d="M15.1483 0.869999C15.5146 0.869999 15.8773 0.94214 16.2157 1.0823C16.554 1.22247 16.8615 1.42791 17.1205 1.6869C17.3795 1.94588 17.5849 2.25335 17.7251 2.59173C17.8652 2.93012 17.9374 3.2928 17.9374 3.65906V12.6725C17.9374 13.0387 17.8652 13.4014 17.7251 13.7398C17.5849 14.0782 17.3795 14.3856 17.1205 14.6446C16.8615 14.9036 16.554 15.109 16.2157 15.2492C15.8773 15.3894 15.5146 15.4615 15.1483 15.4615H3.56299C2.82328 15.4615 2.11387 15.1677 1.59082 14.6446C1.06777 14.1216 0.773926 13.4122 0.773926 12.6725V3.6582C0.773926 2.9185 1.06777 2.20909 1.59082 1.68604C2.11387 1.16299 2.82328 0.869141 3.56299 0.869141H15.1483V0.869999ZM15.1483 2.15726H3.56299C3.16469 2.15726 2.7827 2.31548 2.50105 2.59713C2.21941 2.87877 2.06119 3.26076 2.06119 3.65906V12.6725C2.06119 13.5014 2.73399 14.1743 3.56299 14.1743H15.1483C15.5466 14.1743 15.9286 14.016 16.2103 13.7344C16.4919 13.4527 16.6501 13.0708 16.6501 12.6725V3.6582C16.6501 3.2599 16.4919 2.87791 16.2103 2.59627C15.9286 2.31463 15.5466 2.1564 15.1483 2.1564V2.15726ZM5.93584 5.47925C6.44731 5.47925 6.81032 5.54962 7.22481 5.74871C7.28832 5.7792 7.3452 5.82189 7.3922 5.87436C7.43921 5.92682 7.47542 5.98803 7.49876 6.05449C7.52211 6.12095 7.53214 6.19136 7.52828 6.2617C7.52442 6.33204 7.50674 6.40092 7.47626 6.46443C7.44577 6.52793 7.40308 6.58481 7.35061 6.63182C7.29815 6.67882 7.23694 6.71503 7.17048 6.73838C7.10401 6.76173 7.03361 6.77176 6.96327 6.7679C6.89293 6.76404 6.82405 6.74636 6.76054 6.71587C6.50309 6.5923 6.29713 6.55282 5.93584 6.55282C5.1918 6.55282 4.64514 7.23593 4.64514 8.15932C4.64514 9.08357 5.19266 9.76925 5.93584 9.76925C6.30314 9.76925 6.61465 9.61478 6.77685 9.33931L6.78114 9.32644V8.69654H6.45846C6.33005 8.69653 6.2059 8.65045 6.10858 8.56667C6.01126 8.48289 5.94722 8.36697 5.92811 8.23999L5.92296 8.16104C5.92296 7.89157 6.1212 7.66845 6.38037 7.62983L6.45932 7.62468H7.31921C7.58868 7.62468 7.81095 7.82206 7.84956 8.08123L7.85557 8.16104L7.85385 9.48863L7.8487 9.53669L7.83068 9.61392L7.81352 9.66112C7.48999 10.4249 6.74853 10.842 5.93584 10.842C4.54045 10.842 3.57243 9.62937 3.57243 8.15932C3.57243 6.68927 4.53959 5.47925 5.93584 5.47925ZM9.89545 5.58394C10.1649 5.58394 10.388 5.78304 10.4258 6.04135L10.4318 6.1203V10.2078C10.4315 10.343 10.3802 10.4731 10.2881 10.5721C10.196 10.6711 10.0699 10.7316 9.93504 10.7416C9.8002 10.7516 9.66656 10.7102 9.56088 10.6259C9.4552 10.5416 9.38527 10.4204 9.3651 10.2867L9.35909 10.2078V6.1203C9.35909 5.82423 9.59938 5.58394 9.89545 5.58394ZM12.4665 5.58394L14.1803 5.58995C14.3162 5.5896 14.4472 5.64088 14.5468 5.73342C14.6464 5.82596 14.7071 5.95286 14.7167 6.08846C14.7263 6.22406 14.6841 6.35824 14.5985 6.46388C14.5129 6.56952 14.3905 6.63873 14.2558 6.65752L14.1769 6.66267L13.0003 6.65838V8.16361H13.964C14.2335 8.16361 14.4566 8.36271 14.4944 8.62188L14.5004 8.70083C14.5004 8.82937 14.4542 8.95362 14.3702 9.05096C14.2863 9.1483 14.1701 9.21226 14.043 9.23118L13.964 9.23719L13.0003 9.23633V10.1932C13.0005 10.3218 12.9545 10.4461 12.8707 10.5436C12.7869 10.6411 12.6709 10.7053 12.5438 10.7244L12.4648 10.7295C12.3363 10.7297 12.2119 10.6838 12.1144 10.6C12.0169 10.5162 11.9527 10.4001 11.9336 10.273L11.9285 10.1932V6.11859C11.9289 5.99021 11.9754 5.86627 12.0595 5.76927C12.1436 5.67227 12.2597 5.60864 12.3867 5.58995L12.4665 5.58394Z" fill="#536471"/>
</svg>
