<svg width="24" height="23" viewBox="0 0 24 23" fill="none" xmlns="http://www.w3.org/2000/svg">
<path d="M12.7802 5.58142L12.0193 6.34414L11.2547 5.57956C10.3193 4.6443 9.05072 4.11892 7.72796 4.11901C6.40521 4.11909 5.13667 4.64464 4.2014 5.58003C3.26614 6.51542 2.74076 7.78403 2.74084 9.10678C2.74093 10.4295 3.26648 11.6981 4.20187 12.6333L11.5275 19.959C11.658 20.0893 11.8349 20.1625 12.0193 20.1625C12.2037 20.1625 12.3806 20.0893 12.5111 19.959L19.8432 12.6315C20.7775 11.696 21.3022 10.4279 21.302 9.1058C21.3019 7.78368 20.7768 6.51571 19.8423 5.58049C19.3787 5.11659 18.8282 4.74858 18.2224 4.4975C17.6165 4.24642 16.9671 4.11719 16.3112 4.11719C15.6554 4.11719 15.006 4.24642 14.4001 4.4975C13.7942 4.74858 13.2438 5.11659 12.7802 5.58049V5.58142ZM18.8559 11.6498L12.0193 18.4837L5.18542 11.6498C4.84863 11.3166 4.58102 10.92 4.39796 10.4831C4.21491 10.0461 4.12002 9.5772 4.11876 9.10342C4.1175 8.62964 4.20989 8.16028 4.39062 7.72232C4.57134 7.28435 4.83685 6.88643 5.17186 6.55141C5.50688 6.2164 5.9048 5.9509 6.34276 5.77017C6.78072 5.58944 7.25008 5.49705 7.72387 5.49831C8.19765 5.49957 8.66651 5.59446 9.1035 5.77751C9.5405 5.96057 9.937 6.22818 10.2702 6.56498L11.5303 7.82412C11.5959 7.88975 11.6739 7.94162 11.7598 7.97666C11.8457 8.01171 11.9377 8.02923 12.0305 8.02819C12.1232 8.02715 12.2148 8.00758 12.2999 7.97062C12.385 7.93366 12.4618 7.88007 12.5259 7.81298L13.7637 6.56498C14.446 5.92991 15.348 5.58421 16.28 5.60061C17.2119 5.61701 18.1012 5.99422 18.7607 6.6529C19.4202 7.31158 19.7986 8.20037 19.8162 9.13231C19.8338 10.0643 19.4892 10.9667 18.855 11.6498H18.8559Z" fill="#536471"/>
</svg>
