<svg width="30" height="30" viewBox="0 0 30 30" fill="none" xmlns="http://www.w3.org/2000/svg">
<path d="M27.5 22.9104V14.4235C27.5 13.6061 27.4993 13.1972 27.3978 12.8168C27.3078 12.4798 27.1601 12.1608 26.9603 11.8725C26.7347 11.5473 26.4212 11.2776 25.7928 10.7393L18.2928 4.31443C17.1263 3.31508 16.543 2.81566 15.8865 2.6256C15.3081 2.45813 14.6916 2.45813 14.1132 2.6256C13.4572 2.81551 12.8748 3.31446 11.7099 4.3123L4.20746 10.7393C3.57913 11.2776 3.26569 11.5473 3.04016 11.8725C2.8403 12.1608 2.69148 12.4798 2.60152 12.8168C2.5 13.1972 2.5 13.6061 2.5 14.4235V22.9104C2.5 24.3359 2.5 25.0484 2.73788 25.6106C3.05505 26.3603 3.663 26.9566 4.42871 27.2671C5.003 27.5 5.73103 27.5 7.1871 27.5C8.64316 27.5 9.372 27.5 9.94629 27.2671C10.712 26.9566 11.3198 26.3604 11.637 25.6108C11.8748 25.0485 11.875 24.3357 11.875 22.9102V21.3805C11.875 19.6908 13.2741 18.321 15 18.321C16.7259 18.321 18.125 19.6908 18.125 21.3805V22.9102C18.125 24.3357 18.125 25.0485 18.3629 25.6108C18.68 26.3604 19.288 26.9566 20.0537 27.2671C20.628 27.5 21.356 27.5 22.8121 27.5C24.2682 27.5 24.997 27.5 25.5713 27.2671C26.337 26.9566 26.9448 26.3603 27.262 25.6106C27.4998 25.0484 27.5 24.3359 27.5 22.9104Z" fill="#EB9E3C" stroke="#541049" stroke-linecap="round" stroke-linejoin="round"/>
</svg>
