<svg width="18" height="19" viewBox="0 0 18 19" fill="none" xmlns="http://www.w3.org/2000/svg">
<path d="M9 12.875L12 9.875M12 9.875L9 6.875M12 9.875H1M6 5.12359V5.0752C6 3.95509 6 3.39462 6.21799 2.9668C6.40973 2.59047 6.71547 2.28473 7.0918 2.09299C7.51962 1.875 8.08009 1.875 9.2002 1.875H13.8002C14.9203 1.875 15.4796 1.875 15.9074 2.09299C16.2837 2.28473 16.5905 2.59047 16.7822 2.9668C17 3.3942 17 3.95399 17 5.07191V14.6786C17 15.7965 17 16.3555 16.7822 16.7829C16.5905 17.1592 16.2837 17.4655 15.9074 17.6572C15.48 17.875 14.921 17.875 13.8031 17.875H9.19691C8.07899 17.875 7.5192 17.875 7.0918 17.6572C6.71547 17.4655 6.40973 17.1589 6.21799 16.7826C6 16.3548 6 15.7951 6 14.675V14.625" stroke="#0E3173" stroke-width="2" stroke-linecap="round" stroke-linejoin="round"/>
</svg>
