<svg width="26" height="28" viewBox="0 0 26 28" fill="none" xmlns="http://www.w3.org/2000/svg">
<path d="M16.434 20.5476V21.738C16.434 23.7105 14.8351 25.3095 12.8626 25.3095C10.8902 25.3095 9.29119 23.7105 9.29119 21.738V20.5477M16.434 20.5476L9.29119 20.5477M16.434 20.5476H21.1959C21.8534 20.5476 22.3864 20.0146 22.3864 19.3571V18.6596C22.3864 18.3438 22.2609 18.0412 22.0377 17.8178L21.4296 17.2098C21.28 17.0602 21.1959 16.8571 21.1959 16.6454V12.2142C21.1959 12.0042 21.1884 11.7958 21.1727 11.5905M9.29119 20.5477L4.52928 20.5477C3.87181 20.5477 3.33881 20.0144 3.33881 19.3569V18.6596C3.33881 18.3439 3.46433 18.0415 3.68758 17.8182L4.2956 17.2093C4.44522 17.0596 4.52928 16.8574 4.52928 16.6457V12.2142C4.52928 7.61187 8.26023 3.88091 12.8626 3.88091C13.7098 3.88091 14.5274 4.00731 15.2977 4.2423M21.1727 11.5905C22.6088 10.7705 23.5769 9.22449 23.5769 7.45233C23.5769 4.82241 21.4449 2.69043 18.815 2.69043C17.4219 2.69043 16.1684 3.28868 15.2977 4.2423M21.1727 11.5905C20.4776 11.9874 19.6728 12.2142 18.815 12.2142C16.1851 12.2142 14.0531 10.0823 14.0531 7.45233C14.0531 6.21555 14.5246 5.08889 15.2977 4.2423M21.1727 11.5905C21.1727 11.5905 21.1727 11.5906 21.1727 11.5905ZM15.2977 4.2423C15.2982 4.24247 15.2988 4.24264 15.2993 4.24281" stroke="white" stroke-width="2.38095" stroke-linecap="round" stroke-linejoin="round"/>
</svg>
