<svg width="8" height="8" viewBox="0 0 8 8" fill="none" xmlns="http://www.w3.org/2000/svg">
<path d="M4.06746 2.23463L0.480957 5.82114V7.61439L2.27421 7.61438L5.86071 4.02788M4.06746 2.23463L5.35351 0.948573L5.35428 0.947811C5.53131 0.770779 5.61999 0.682107 5.7222 0.648895C5.81224 0.619639 5.90924 0.619639 5.99928 0.648895C6.10143 0.682084 6.19 0.770655 6.36678 0.947435L7.14675 1.72741C7.32429 1.90495 7.4131 1.99376 7.44636 2.09612C7.47562 2.18616 7.47561 2.28315 7.44635 2.37319C7.41312 2.47548 7.32444 2.56416 7.14715 2.74145L7.14676 2.74183L5.86071 4.02788M4.06746 2.23463L5.86071 4.02788" stroke="white" stroke-width="0.448313" stroke-linecap="round" stroke-linejoin="round"/>
</svg>
