<svg width="26" height="26" viewBox="0 0 26 26" fill="none" xmlns="http://www.w3.org/2000/svg">
<path d="M19.3859 21.3319C17.9294 19.7052 15.8132 18.6816 13.4579 18.6816C11.1026 18.6816 8.98624 19.7052 7.52975 21.3319M13.4579 23.227C7.80956 23.227 3.23065 18.6481 3.23065 12.9997C3.23065 7.35137 7.80956 2.77246 13.4579 2.77246C19.1063 2.77246 23.6852 7.35137 23.6852 12.9997C23.6852 18.6481 19.1063 23.227 13.4579 23.227ZM13.4579 15.2725C11.5751 15.2725 10.0488 13.7462 10.0488 11.8634C10.0488 9.98058 11.5751 8.45428 13.4579 8.45428C15.3407 8.45428 16.867 9.98058 16.867 11.8634C16.867 13.7462 15.3407 15.2725 13.4579 15.2725Z" stroke="white" stroke-width="2.27273" stroke-linecap="round" stroke-linejoin="round"/>
</svg>
