<svg width="20" height="21" viewBox="0 0 20 21" fill="none" xmlns="http://www.w3.org/2000/svg">
<path d="M7.14648 7.94861C7.31728 7.42232 7.63015 6.95396 8.05078 6.59448C8.47141 6.23501 8.9838 5.99878 9.53027 5.91208C10.0768 5.82538 10.6362 5.8914 11.1475 6.10303C11.6587 6.31466 12.1014 6.66375 12.4268 7.11133C12.7521 7.55891 12.9469 8.08756 12.9904 8.63916C13.0339 9.19076 12.9238 9.74379 12.6727 10.2368C12.4215 10.7298 12.0394 11.1435 11.5676 11.4326C11.0958 11.7217 10.5533 11.8748 10 11.8748V12.8752M10 19.875C5.02944 19.875 1 15.8456 1 10.875C1 5.90444 5.02944 1.875 10 1.875C14.9706 1.875 19 5.90444 19 10.875C19 15.8456 14.9706 19.875 10 19.875ZM10.0498 15.875V15.975L9.9502 15.9752V15.875H10.0498Z" stroke="#0E3173" stroke-width="2" stroke-linecap="round" stroke-linejoin="round"/>
</svg>
