<svg width="23" height="23" viewBox="0 0 23 23" fill="none" xmlns="http://www.w3.org/2000/svg">
<path d="M13.941 2.69529L13.8696 2.63313C13.7358 2.53124 13.5696 2.48138 13.4019 2.49282C13.2341 2.50425 13.0762 2.5762 12.9575 2.69529L12.8944 2.76767C12.7929 2.90236 12.7434 3.06912 12.755 3.23736C12.7666 3.40559 12.8385 3.56399 12.9575 3.68349L14.7863 5.51792H8.27167L8.05547 5.52163C4.82458 5.63576 2.24042 8.29972 2.24042 11.5714C2.24042 13.1396 2.83426 14.5685 3.8104 15.6449L3.87721 15.7089C4.00849 15.8212 4.17682 15.8807 4.34951 15.8759C4.52221 15.8711 4.68696 15.8023 4.81181 15.6829C4.93665 15.5635 5.01269 15.4019 5.02517 15.2296C5.03764 15.0573 4.98567 14.8865 4.87932 14.7504L4.69374 14.536C4.00553 13.7012 3.63013 12.6524 3.63224 11.5705C3.63224 8.99934 5.70978 6.91439 8.27167 6.91439H14.6564L12.9566 8.62169L12.8944 8.69407C12.7929 8.82876 12.7434 8.99552 12.755 9.16375C12.7666 9.33199 12.8385 9.49039 12.9575 9.60989C13.022 9.67464 13.0986 9.72602 13.183 9.76108C13.2674 9.79614 13.3579 9.81418 13.4493 9.81418C13.5406 9.81418 13.6311 9.79614 13.7155 9.76108C13.7999 9.72602 13.8766 9.67464 13.941 9.60989L16.8936 6.64716L16.9557 6.57478C17.0573 6.4402 17.107 6.2735 17.0955 6.10527C17.0841 5.93704 17.0124 5.77857 16.8936 5.65896L13.941 2.69529ZM19.1558 7.42843C19.0214 7.31742 18.8503 7.26078 18.6762 7.2697C18.5022 7.27862 18.3378 7.35245 18.2154 7.47663C18.0931 7.6008 18.0218 7.76631 18.0155 7.94049C18.0092 8.11467 18.0684 8.28489 18.1815 8.41756C18.9712 9.27745 19.4084 10.403 19.4063 11.5705C19.4063 14.1426 17.3287 16.2276 14.7669 16.2276H8.32548L10.0931 14.4544L10.1618 14.3746C10.2509 14.253 10.2984 14.1058 10.2972 13.955C10.2961 13.8042 10.2463 13.6579 10.1553 13.5376L10.0931 13.4662L10.0152 13.3984C9.89422 13.3086 9.74733 13.2606 9.59668 13.2616C9.44603 13.2626 9.2998 13.3126 9.18007 13.404L9.10955 13.4662L6.15702 16.4298L6.08928 16.5087C6.00001 16.6302 5.95234 16.7773 5.95334 16.9281C5.95434 17.0789 6.00397 17.2253 6.09485 17.3457L6.15702 17.4171L9.10955 20.3808L9.18749 20.4476C9.45936 20.6517 9.84629 20.6285 10.0931 20.3798C10.2121 20.2603 10.284 20.1019 10.2956 19.9337C10.3071 19.7655 10.2577 19.5987 10.1562 19.464L10.0931 19.3926L8.33105 17.624H14.7669L14.9831 17.6203C18.214 17.5062 20.7981 14.8413 20.7981 11.5705C20.8005 10.0623 20.2388 8.6077 19.2235 7.49246L19.1558 7.42843Z" fill="#536471"/>
</svg>
