<svg width="19" height="19" viewBox="0 0 19 19" fill="none" xmlns="http://www.w3.org/2000/svg">
<path d="M12.9902 2.52801C10.1324 -0.329794 5.49776 -0.329795 2.63996 2.52801C-0.217848 5.38582 -0.217848 10.0204 2.63996 12.8782C5.1716 15.4099 9.09798 15.6957 11.9465 13.7418L15.5094 17.7272C16.1151 18.4075 17.1682 18.4354 17.8112 17.7924L17.9044 17.6992C18.5474 17.0562 18.5194 16.0032 17.8391 15.3975L13.8537 11.8345C15.8107 8.98293 15.5218 5.05966 12.9902 2.52801ZM11.2134 11.1014C9.33716 12.9776 6.29298 12.9776 4.41677 11.1014C2.54056 9.22522 2.54056 6.18103 4.41677 4.30482C6.29298 2.42861 9.33716 2.42861 11.2134 4.30482C13.0927 6.18414 13.0896 9.22522 11.2134 11.1014Z" fill="#0E3173"/>
</svg>
