<svg width="24" height="24" viewBox="0 0 24 24" fill="none" xmlns="http://www.w3.org/2000/svg">
<rect width="24" height="24" rx="12" fill="#0E3173"/>
<path d="M17.0953 10.0021L16.8575 9.86982C16.8205 9.84928 16.8024 9.83897 16.7845 9.82828C16.6072 9.72205 16.4577 9.57527 16.3486 9.39967C16.3376 9.382 16.3273 9.36347 16.3062 9.32684C16.285 9.29027 16.2743 9.27174 16.2645 9.25339C16.1666 9.07069 16.1137 8.8671 16.1105 8.65988C16.1102 8.63904 16.1103 8.61776 16.111 8.57544L16.1157 8.29927C16.1231 7.85733 16.1268 7.63567 16.0647 7.43675C16.0096 7.26005 15.9173 7.0973 15.794 6.95919C15.6547 6.80307 15.4619 6.69169 15.0758 6.46922L14.7551 6.28442C14.3701 6.06257 14.1776 5.9516 13.9732 5.9093C13.7923 5.87187 13.6057 5.87361 13.4255 5.91405C13.2222 5.9597 13.032 6.07356 12.652 6.30115L12.6498 6.30218L12.42 6.43976C12.3837 6.46152 12.3653 6.47248 12.3471 6.48261C12.1664 6.58309 11.9646 6.63864 11.758 6.64528C11.7371 6.64594 11.7159 6.64594 11.6736 6.64594C11.6315 6.64594 11.6094 6.64594 11.5886 6.64528C11.3815 6.63861 11.1793 6.58275 10.9983 6.48186C10.9801 6.47169 10.962 6.46064 10.9256 6.43878L10.6944 6.29996C10.3117 6.07022 10.1201 5.95518 9.9156 5.9093C9.7347 5.86871 9.54745 5.86758 9.36596 5.90549C9.16104 5.94829 8.96843 6.06008 8.58321 6.28366L8.5815 6.28442L8.2648 6.46823L8.2613 6.47037C7.87955 6.69194 7.68821 6.80298 7.55007 6.95847C7.42749 7.09644 7.33586 7.25893 7.28102 7.43516C7.21903 7.63436 7.22233 7.85649 7.2298 8.30052L7.23444 8.57629C7.23515 8.61806 7.23636 8.63881 7.23606 8.65935C7.23299 8.86699 7.17936 9.071 7.08123 9.25402C7.07152 9.27212 7.06106 9.29022 7.04018 9.32638C7.01928 9.36256 7.00916 9.38055 6.99832 9.39801C6.88875 9.57455 6.73859 9.72218 6.56013 9.8286C6.54248 9.83913 6.52387 9.84925 6.48732 9.8695L6.25252 9.99963C5.86185 10.2161 5.66656 10.3245 5.52446 10.4786C5.39876 10.615 5.30379 10.7768 5.24582 10.953C5.1803 11.1522 5.18035 11.3755 5.18137 11.8222L5.1822 12.1872C5.1832 12.6309 5.18459 12.8526 5.25026 13.0504C5.30836 13.2254 5.40263 13.3862 5.52763 13.5218C5.66893 13.6751 5.86228 13.7827 6.24998 13.9984L6.48269 14.1279C6.52229 14.1499 6.54222 14.1608 6.56132 14.1723C6.73816 14.2788 6.88715 14.426 6.99579 14.6015C7.00752 14.6205 7.01879 14.6402 7.04132 14.6795C7.06357 14.7184 7.07496 14.7378 7.08525 14.7573C7.1805 14.9377 7.2315 15.138 7.23497 15.3419C7.23535 15.364 7.23503 15.3863 7.23427 15.431L7.2298 15.6957C7.22228 16.1412 7.21901 16.3643 7.28136 16.564C7.33652 16.7407 7.42872 16.9034 7.55197 17.0416C7.69129 17.1977 7.88442 17.309 8.27051 17.5315L8.59113 17.7162C8.97613 17.9381 9.16857 18.0489 9.37296 18.0912C9.55379 18.1287 9.7405 18.1272 9.92068 18.0868C10.1243 18.041 10.3151 17.9268 10.6963 17.6986L10.9261 17.561C10.9624 17.5392 10.9808 17.5283 10.999 17.5182C11.1798 17.4177 11.3813 17.3618 11.588 17.3552C11.6088 17.3545 11.63 17.3545 11.6723 17.3545C11.7148 17.3545 11.736 17.3545 11.7568 17.3552C11.964 17.3619 12.1667 17.4179 12.3477 17.5188C12.3637 17.5277 12.3796 17.5373 12.4076 17.5541L12.6519 17.7008C13.0346 17.9305 13.2258 18.0452 13.4303 18.0911C13.6113 18.1317 13.7986 18.1333 13.9801 18.0954C14.185 18.0527 14.378 17.9406 14.763 17.7172L15.0845 17.5306C15.4665 17.3089 15.658 17.1977 15.7962 17.0422C15.9188 16.9042 16.0105 16.7418 16.0654 16.5656C16.1269 16.3678 16.1232 16.1474 16.1158 15.7098L16.111 15.4244C16.1103 15.3826 16.1102 15.3618 16.1105 15.3413C16.1136 15.1337 16.1664 14.9295 16.2645 14.7465C16.2742 14.7284 16.2847 14.7102 16.3055 14.6741C16.3264 14.638 16.3372 14.6199 16.3481 14.6025C16.4577 14.4259 16.608 14.2782 16.7864 14.1718C16.8039 14.1614 16.8218 14.1514 16.8575 14.1316L16.8587 14.1311L17.0935 14.0009C17.4842 13.7844 17.6799 13.676 17.822 13.5218C17.9477 13.3854 18.0425 13.2239 18.1005 13.0477C18.1656 12.8497 18.1651 12.6276 18.1641 12.1862L18.1633 11.8133C18.1623 11.3696 18.1617 11.148 18.096 10.9502C18.0379 10.7752 17.9431 10.6143 17.8181 10.4787C17.677 10.3256 17.4834 10.2179 17.0964 10.0027L17.0953 10.0021Z" stroke="#FFC001" stroke-width="1.29882" stroke-linecap="round" stroke-linejoin="round"/>
<path d="M9.0753 12.0004C9.0753 13.435 10.2383 14.598 11.6729 14.598C13.1076 14.598 14.2706 13.435 14.2706 12.0004C14.2706 10.5657 13.1076 9.40274 11.6729 9.40274C10.2383 9.40274 9.0753 10.5657 9.0753 12.0004Z" stroke="#FFC001" stroke-width="1.29882" stroke-linecap="round" stroke-linejoin="round"/>
</svg>
