<svg width="8" height="8" viewBox="0 0 8 8" fill="none" xmlns="http://www.w3.org/2000/svg">
<path d="M4.29638 2.69434L0.906494 6.08422V7.77916L2.60144 7.77916L5.99131 4.38928M4.29638 2.69434L5.51191 1.47879L5.51265 1.47807C5.67997 1.31075 5.76378 1.22693 5.8604 1.19554C5.9455 1.16789 6.03718 1.16789 6.12229 1.19554C6.21883 1.22691 6.30255 1.31063 6.46963 1.47772L7.20685 2.21493C7.37465 2.38274 7.45859 2.46668 7.49003 2.56343C7.51768 2.64853 7.51767 2.74021 7.49002 2.82531C7.45861 2.92199 7.37479 3.00581 7.20723 3.17337L7.20686 3.17373L5.99131 4.38928M4.29638 2.69434L5.99131 4.38928" stroke="#0E3173" stroke-width="0.423735" stroke-linecap="round" stroke-linejoin="round"/>
</svg>
