<svg width="14" height="18" viewBox="0 0 14 18" fill="none" xmlns="http://www.w3.org/2000/svg">
<path d="M1.62827 17.6818C1.52423 17.7567 1.40155 17.8013 1.27375 17.8109C1.14595 17.8205 1.01799 17.7945 0.903979 17.736C0.789971 17.6775 0.694342 17.5886 0.627636 17.4791C0.56093 17.3697 0.525738 17.244 0.525941 17.1158V3.20312C0.525941 2.40333 0.843658 1.6363 1.4092 1.07076C1.97474 0.505217 2.74177 0.1875 3.54157 0.1875H10.4998C11.2992 0.187746 12.0659 0.505444 12.6312 1.07076C13.1965 1.63607 13.5142 2.40273 13.5145 3.2022V17.1168C13.5145 17.2448 13.4792 17.3704 13.4124 17.4797C13.3456 17.589 13.25 17.6778 13.136 17.7362C13.022 17.7946 12.8941 17.8205 12.7664 17.8109C12.6387 17.8013 12.5161 17.7566 12.4121 17.6818L7.02021 13.8024L1.62734 17.6809L1.62827 17.6818ZM12.1226 3.2022C12.1226 2.77154 11.9516 2.35852 11.647 2.054C11.3425 1.74948 10.9295 1.5784 10.4988 1.5784H3.54249C3.11184 1.5784 2.69882 1.74948 2.3943 2.054C2.08977 2.35852 1.9187 2.77154 1.9187 3.2022V15.7583L6.61565 12.3808C6.73404 12.2957 6.87621 12.2498 7.02206 12.2498C7.16791 12.2498 7.31008 12.2957 7.42847 12.3808L12.1236 15.7583V3.20312L12.1226 3.2022Z" fill="#536471"/>
</svg>
